<svg width="108" height="24" xmlns="http://www.w3.org/2000/svg"><g fill="none" fill-rule="evenodd"><path d="M58.408 14.416c0 1.91-.948 2.93-2.67 2.93-1.73 0-2.685-1.049-2.685-3.011V7.701h-2.382v6.715c0 3.304 1.835 5.199 5.036 5.199 3.231 0 5.084-1.93 5.084-5.296V7.693h-2.383v6.723zM85.95 15.77l-2.667-8.078H81.34l-2.667 8.078-2.594-8.071H73.54l4.093 11.74h1.974l2.67-7.712 2.67 7.712h1.99l4.084-11.74H88.55zm9.344-1.386h4.335v-2.14h-4.335V9.842h6.292V7.7h-8.643v11.73h8.87v-2.139h-6.519zm9.36 5.039h2.351V7.693h-2.35zm-36.471-8.757l1.7 3.93h-.006l.114.273h-3.603l.114-.272h-.004l1.685-3.931zm2.694 6.321l1.054 2.445h2.498l-5.126-11.67-.046-.069h-2.083l-5.175 11.739h2.433l.998-2.273.071-.172h5.376z" fill="#040201"/><path d="M13.76 18.194s.055-.043.026-.115C10.157 10.137 5.19 4.117 5.19 4.117s-2.702 2.569-2.51 5.14c.103 1.946 1.566 3.098 1.566 3.098 2.356 2.299 8.062 5.202 9.388 5.86.018.007.086.03.127-.021m-.884 1.966c-.023-.086-.122-.086-.122-.086v-.003l-9.497.332c1.03 1.838 2.764 3.266 4.572 2.828 1.247-.312 4.071-2.284 5.004-2.951l-.003-.002c.072-.066.046-.119.046-.119m.143-.854c.047-.074-.035-.14-.035-.14v-.003C8.816 16.346.73 12.021.73 12.021c-.735 2.278.256 4.113.256 4.113 1.03 2.181 2.997 2.842 2.997 2.842a5.815 5.815 0 001.817.399c.143.025 5.649.001 7.125-.005.062-.001.097-.065.097-.065M13.651.011c-.413.036-1.529.29-1.529.29-2.514.65-3.108 2.936-3.108 2.936-.46 1.438.011 3.016.011 3.016.84 3.729 4.97 9.855 5.858 11.141.062.064.112.04.112.04.095-.026.09-.118.09-.118v.001C16.452 3.637 13.651.011 13.651.011m3.145 17.42c.091.036.138-.052.138-.052v.001c.912-1.32 5.018-7.413 5.853-11.127 0 0 .454-1.799.016-3.016 0 0-.62-2.32-3.14-2.934 0 0-.725-.183-1.495-.292 0 0-2.815 3.628-1.446 17.316h.002c.01.086.072.104.072.104m2.248 2.649s-.083.011-.107.073c0 0-.02.086.037.128l-.001.001c.91.652 3.665 2.582 4.994 2.957 0 0 2.455.839 4.587-2.83l-9.51-.331v.002zm12.039-8.079s-8.074 4.337-12.248 7.157c0 0-.074.05-.048.139 0 0 .039.07.098.07v.002c1.494.003 7.151.008 7.294-.018 0 0 .731-.029 1.636-.375 0 0 2.012-.641 3.056-2.93 0 0 .933-1.865.212-4.045m-13.011 6.193s.065.049.128.008v.001c1.36-.677 7.022-3.56 9.367-5.848 0 0 1.485-1.195 1.563-3.11.172-2.664-2.505-5.128-2.505-5.128s-4.952 6.002-8.581 13.925h.001s-.042.092.027.152" fill="#E80000"/><path fill="#040201" d="M44.984 12.432h-5.38V7.694H37.22v11.745h2.383v-4.77h5.381v4.77h2.383V7.694h-2.383z"/></g></svg>